<mxfile host="app.diagrams.net" agent="Mozilla/5.0 (Windows NT 10.0; Win64; x64) AppleWebKit/537.36 (KHTML, like Gecko) Chrome/131.0.0.0 Safari/537.36" version="25.0.3">
  <diagram id="prtHgNgQTEPvFCAcTncT" name="Page-1">
    <mxGraphModel dx="1434" dy="738" grid="1" gridSize="10" guides="1" tooltips="1" connect="1" arrows="1" fold="1" page="1" pageScale="1" pageWidth="827" pageHeight="1169" math="0" shadow="0">
      <root>
        <mxCell id="0" />
        <mxCell id="1" parent="0" />
        <mxCell id="dNxyNK7c78bLwvsdeMH5-11" value="Application container" style="swimlane;html=1;startSize=20;horizontal=1;containerType=tree;glass=0;" parent="1" vertex="1">
          <mxGeometry x="40" y="80" width="710" height="290" as="geometry" />
        </mxCell>
        <mxCell id="G-C-zkYpjuY52WxqaYPQ-16" value="FastAPI server&lt;br&gt;Provides the mini-notion functionalities via JSON/HTTPs API" style="shape=process;whiteSpace=wrap;html=1;backgroundOutline=1;" vertex="1" parent="dNxyNK7c78bLwvsdeMH5-11">
          <mxGeometry x="60" y="200" width="240" height="60" as="geometry" />
        </mxCell>
        <mxCell id="G-C-zkYpjuY52WxqaYPQ-21" style="edgeStyle=orthogonalEdgeStyle;rounded=0;orthogonalLoop=1;jettySize=auto;html=1;exitX=0;exitY=0.5;exitDx=0;exitDy=0;" edge="1" parent="dNxyNK7c78bLwvsdeMH5-11" source="G-C-zkYpjuY52WxqaYPQ-19" target="G-C-zkYpjuY52WxqaYPQ-16">
          <mxGeometry relative="1" as="geometry" />
        </mxCell>
        <mxCell id="G-C-zkYpjuY52WxqaYPQ-22" value="Makes API calls to" style="edgeLabel;html=1;align=center;verticalAlign=middle;resizable=0;points=[];" vertex="1" connectable="0" parent="G-C-zkYpjuY52WxqaYPQ-21">
          <mxGeometry x="0.2" y="2" relative="1" as="geometry">
            <mxPoint x="11" y="8" as="offset" />
          </mxGeometry>
        </mxCell>
        <mxCell id="G-C-zkYpjuY52WxqaYPQ-19" value="Frontend web application&lt;br&gt;Delivers static content that defines the interface of the website" style="shape=process;whiteSpace=wrap;html=1;backgroundOutline=1;" vertex="1" parent="dNxyNK7c78bLwvsdeMH5-11">
          <mxGeometry x="410" y="200" width="240" height="60" as="geometry" />
        </mxCell>
        <UserObject label="Customer&amp;nbsp;&lt;div&gt;A customer of mini notion app, with tasks and notes&lt;/div&gt;" name="Tessa Miller" position="CFO" location="Office 1" email="me@example.com" placeholders="1" link="https://www.draw.io" id="G-C-zkYpjuY52WxqaYPQ-3">
          <mxCell style="label;image=https://cdn3.iconfinder.com/data/icons/user-avatars-1/512/users-3-128.png;whiteSpace=wrap;html=1;rounded=0;glass=0;treeMoving=1;treeFolding=1;" vertex="1" parent="1">
            <mxGeometry x="440" y="460" width="180" height="70" as="geometry" />
          </mxCell>
        </UserObject>
        <mxCell id="G-C-zkYpjuY52WxqaYPQ-17" value="SQLite database&lt;br&gt;Stores all the relevant information related to notes, tasks and users" style="shape=datastore;whiteSpace=wrap;html=1;" vertex="1" parent="1">
          <mxGeometry x="270" y="140" width="230" height="90" as="geometry" />
        </mxCell>
        <mxCell id="G-C-zkYpjuY52WxqaYPQ-18" style="edgeStyle=orthogonalEdgeStyle;rounded=0;orthogonalLoop=1;jettySize=auto;html=1;entryX=0.5;entryY=1;entryDx=0;entryDy=0;" edge="1" parent="1" source="G-C-zkYpjuY52WxqaYPQ-16" target="G-C-zkYpjuY52WxqaYPQ-17">
          <mxGeometry relative="1" as="geometry" />
        </mxCell>
        <mxCell id="G-C-zkYpjuY52WxqaYPQ-20" value="Read and writes to" style="edgeLabel;html=1;align=center;verticalAlign=middle;resizable=0;points=[];" vertex="1" connectable="0" parent="G-C-zkYpjuY52WxqaYPQ-18">
          <mxGeometry x="-0.0222" y="1" relative="1" as="geometry">
            <mxPoint as="offset" />
          </mxGeometry>
        </mxCell>
        <mxCell id="G-C-zkYpjuY52WxqaYPQ-23" style="edgeStyle=orthogonalEdgeStyle;rounded=0;orthogonalLoop=1;jettySize=auto;html=1;exitX=0.5;exitY=0;exitDx=0;exitDy=0;entryX=0.438;entryY=1;entryDx=0;entryDy=0;entryPerimeter=0;" edge="1" parent="1" source="G-C-zkYpjuY52WxqaYPQ-3" target="G-C-zkYpjuY52WxqaYPQ-19">
          <mxGeometry relative="1" as="geometry" />
        </mxCell>
        <mxCell id="G-C-zkYpjuY52WxqaYPQ-24" value="Creates tasks, notes and search form them" style="edgeLabel;html=1;align=center;verticalAlign=middle;resizable=0;points=[];" vertex="1" connectable="0" parent="G-C-zkYpjuY52WxqaYPQ-23">
          <mxGeometry x="-0.4211" relative="1" as="geometry">
            <mxPoint as="offset" />
          </mxGeometry>
        </mxCell>
      </root>
    </mxGraphModel>
  </diagram>
</mxfile>
